<?xml version="1.0" encoding="UTF-8"?>
<svg width="34px" height="27px" viewBox="0 0 34 27" version="1.1" xmlns="http://www.w3.org/2000/svg" xmlns:xlink="http://www.w3.org/1999/xlink">
    <title>crown</title>
    <g id="desktop" stroke="none" stroke-width="1" fill="none" fill-rule="evenodd">
        <g id="about-the-card_desktop_design_new" transform="translate(-1286.000000, -2313.000000)" fill="#545454">
            <g id="Group-11" transform="translate(1271.098959, 2291.928084)">
                <path d="M23.9857593,47.7369102 C22.6323047,47.7369102 21.4496152,46.8216277 21.1099614,45.5113335 L15.4545383,23.6702818 C15.2701683,22.9557891 15.5722912,22.2234693 16.2075001,21.8476921 C16.842709,21.471915 17.6303867,21.5601124 18.1670772,22.0663091 L25.6511888,29.1211621 L30.8238719,22.7714191 C31.136785,22.3867283 31.5993522,22.1671731 32.0952279,22.1671731 L32.1036724,22.1671731 C32.6028321,22.1690497 33.0672758,22.3947036 33.3778432,22.7845549 L38.4135389,29.1127176 L45.8896751,22.0663091 C46.4258965,21.5601124 47.2135743,21.471915 47.8492523,21.8476921 C48.483992,22.2234693 48.7865841,22.9557891 48.6017449,23.6702818 L45.2516515,36.8557917 C45.1235776,37.3582354 44.6140969,37.6631732 44.1111841,37.534161 C43.6087405,37.4065563 43.3052101,36.8961374 43.4328148,36.3941628 L46.5844642,23.9902319 L39.3264757,30.8306902 C39.0407724,31.1004429 38.6532669,31.2355538 38.2629465,31.2097513 C37.8726262,31.1816032 37.5090465,30.989727 37.2646271,30.6833818 L32.0933514,24.1835156 L26.7855574,30.6998015 C26.5397306,31.0014554 26.1770892,31.1886403 25.7895836,31.2139735 C25.4016089,31.2388377 25.0183256,31.1018503 24.7354372,30.8363198 L17.4774487,23.9944542 L22.9269215,45.0407911 C23.0517114,45.523531 23.4870688,45.86037 23.9857593,45.86037 L40.070993,45.86037 C40.5696836,45.86037 41.0050409,45.523531 41.1298309,45.0407911 L42.2435575,40.7406991 C42.3735079,40.2391938 42.8853342,39.9384782 43.3868396,40.0674903 C43.888345,40.1974407 44.1899988,40.7097362 44.0605175,41.2112416 L42.9467909,45.5108644 C42.6076063,46.8216277 41.4253859,47.7369102 40.070993,47.7369102 L23.9857593,47.7369102 Z" id="crown"></path>
            </g>
        </g>
    </g>
</svg>