<?xml version="1.0" encoding="UTF-8"?>
<svg width="38px" height="38px" viewBox="0 0 38 38" version="1.1" xmlns="http://www.w3.org/2000/svg" xmlns:xlink="http://www.w3.org/1999/xlink">
    <title>plus</title>
    <g id="desktop" stroke="none" stroke-width="1" fill="none" fill-rule="evenodd">
        <g id="about-the-card_desktop_design_new" transform="translate(-601.000000, -2306.000000)" fill="#545454">
            <g id="Group-19" transform="translate(587.598959, 2291.928084)">
                <g id="plus-gray" transform="translate(0.500117, 0.000000)">
                    <path d="M32.1969369,51.4753012 C29.8095985,51.4753012 27.8677124,49.5329037 27.8677124,47.1455653 L27.8677124,37.9450043 C27.8677124,37.6524684 27.6298992,37.4151666 27.3378747,37.4151666 L18.1368023,37.4151666 C15.7494638,37.4151666 13.8075778,35.4732805 13.8075778,33.0859421 C13.8075778,30.6986036 15.7494638,28.7562061 18.1368023,28.7562061 L27.3378747,28.7562061 C27.6298992,28.7562061 27.8677124,28.5183929 27.8677124,28.2263684 L27.8677124,19.025296 C27.8677124,16.6379575 29.8095985,14.6960715 32.1969369,14.6960715 C34.5842754,14.6960715 36.5261614,16.6379575 36.5261614,19.025296 L36.5261614,20.9380307 C36.5261614,21.5026455 36.0684348,21.9608835 35.5033086,21.9608835 C34.9386939,21.9608835 34.4804558,21.5026455 34.4804558,20.9380307 L34.4804558,19.025296 C34.4804558,17.7661642 33.4560687,16.7417771 32.1969369,16.7417771 C30.9378051,16.7417771 29.913418,17.7661642 29.913418,19.025296 L29.913418,28.2263684 C29.913418,29.6465995 28.7581058,30.8019117 27.3378747,30.8019117 L18.1368023,30.8019117 C16.8776705,30.8019117 15.8532834,31.8262988 15.8532834,33.0859421 C15.8532834,34.3450739 16.8776705,35.3694609 18.1368023,35.3694609 L27.3378747,35.3694609 C28.7581058,35.3694609 29.913418,36.5242618 29.913418,37.9450043 L29.913418,47.1455653 C29.913418,48.4052085 30.9378051,49.4295956 32.1969369,49.4295956 C33.4560687,49.4295956 34.4804558,48.4052085 34.4804558,47.1455653 L34.4804558,37.9450043 C34.4804558,36.5242618 35.6357681,35.3694609 37.0559992,35.3694609 L46.2570716,35.3694609 C47.5162034,35.3694609 48.5405905,34.3450739 48.5405905,33.0859421 C48.5405905,31.8262988 47.5162034,30.8019117 46.2570716,30.8019117 L37.0559992,30.8019117 C35.6357681,30.8019117 34.4804558,29.6465995 34.4804558,28.2263684 L34.4804558,24.9869935 C34.4804558,24.4218674 34.9386939,23.9641407 35.5033086,23.9641407 C36.0684348,23.9641407 36.5261614,24.4218674 36.5261614,24.9869935 L36.5261614,28.2263684 C36.5261614,28.5183929 36.7639747,28.7562061 37.0559992,28.7562061 L46.2570716,28.7562061 C48.64441,28.7562061 50.5862961,30.6986036 50.5862961,33.0859421 C50.5862961,35.4732805 48.64441,37.4151666 46.2570716,37.4151666 L37.0559992,37.4151666 C36.7639747,37.4151666 36.5261614,37.6524684 36.5261614,37.9450043 L36.5261614,47.1455653 C36.5261614,49.5329037 34.5842754,51.4753012 32.1969369,51.4753012" id="plus"></path>
                </g>
            </g>
        </g>
    </g>
</svg>