<?xml version="1.0" encoding="UTF-8"?>
<svg width="34px" height="34px" viewBox="0 0 34 34" version="1.1" xmlns="http://www.w3.org/2000/svg" xmlns:xlink="http://www.w3.org/1999/xlink">
    <title>star</title>
    <g id="desktop" stroke="none" stroke-width="1" fill="none" fill-rule="evenodd">
        <g id="about-the-card_desktop_design_new" transform="translate(-943.000000, -2308.000000)" fill="#545454">
            <g id="Group-16" transform="translate(928.030173, 2291.928084)">
                <g id="Group-13" transform="translate(2.500000, 6.116337)">
                    <path d="M19.6121881,43.2914204 C19.4157783,43.2914204 19.2203038,43.2296916 19.0556937,43.1081046 C18.7666908,42.8939244 18.6254628,42.5329045 18.6937385,42.1793669 L19.8871618,35.9723499 C19.9844314,35.4654256 20.4731177,35.1329319 20.9819126,35.2306692 C21.4888369,35.3279388 21.8213306,35.8184956 21.7235934,36.3258875 L20.8991399,40.6160385 L29.1184219,36.2622882 C29.3924603,36.1177867 29.71981,36.1177867 29.9929131,36.2618205 L38.3412644,40.6684144 L36.96359,31.2996675 C36.9229051,31.0251615 37.0066131,30.7469143 37.1913319,30.5402163 L42.9695208,24.0745932 L34.6104137,22.7044011 C34.3143961,22.6562339 34.0599987,22.4687093 33.9257853,22.2012179 L29.558941,13.5021348 L25.2224934,22.1988797 C25.0882801,22.467774 24.833415,22.6562339 24.5364621,22.7044011 L16.1778227,24.0745932 L21.9550763,30.5402163 C22.2997287,30.9255536 22.2660585,31.5166536 21.8811888,31.8608383 C21.4953839,32.2059584 20.904284,32.1708852 20.5605668,31.7869509 L13.6478775,24.0507434 C13.4201357,23.7958783 13.3495217,23.4381319 13.4631588,23.1159263 C13.5767959,22.7941884 13.8569137,22.5598996 14.1940838,22.5042501 L23.7620464,20.9357777 L28.7190553,10.9946365 C28.8771184,10.677575 29.2011946,10.4774241 29.5547322,10.4769564 L29.5561351,10.4769564 C29.9096728,10.4769564 30.2337489,10.6761721 30.391812,10.9922983 L35.3834265,20.9357777 L44.9532597,22.5042501 C45.2904298,22.5598996 45.5700799,22.7941884 45.6841847,23.1159263 C45.7978217,23.4381319 45.7267401,23.7958783 45.4994659,24.0507434 L38.8781178,31.4605365 L40.4601519,42.2200518 C40.5111249,42.5684453 40.3624147,42.9163712 40.0752823,43.119328 C39.7867469,43.3222848 39.4093595,43.3480051 39.0983774,43.1829274 L29.5570704,38.1473545 L20.0499014,43.1824597 C19.9119469,43.2549443 19.7618337,43.2914204 19.6121881,43.2914204" id="star"></path>
                </g>
            </g>
        </g>
    </g>
</svg>